<svg xmlns="http://www.w3.org/2000/svg" width="512" height="512" viewBox="0 0 64 64" fill="none"><g transform="translate(32 32) scale(1.25) translate(-31.05 -35.6)"><rect x="15" y="17.5" width="20" height="11.25" rx="3" fill="#c9a24b"/><rect x="31.5" y="29.5" width="16" height="9" rx="2.5" fill="#c9a24b"/><rect x="22" y="39.5" width="12" height="6.75" rx="2" fill="#c9a24b"/><path d="M28 28.75 Q31.4 29.2 31.5 33 L38.5 29.5 Q34.9 29.1 35 26 Z" fill="#c9a24b"/><path d="M38 38.5 Q34.3 39 34 43 L28 39.5 Q31.4 39.2 31.5 36 Z" fill="#c9a24b"/><path d="M28.5 45.5 Q31.1 46.6 31.2 48.5 L31.2 52.2 Q31.2 53.7 32.6 53.7 Q34 53.7 34 52.2 L34 45 Z" fill="#c9a24b"/></g></svg>